<svg width="32" height="42" viewBox="0 0 32 42" fill="none" xmlns="http://www.w3.org/2000/svg">
<path d="M1 41V5H20H30.5V41H1Z" stroke="#539DF3" stroke-width="2"/>
<path d="M24.5 11H19L21.5 26L24.5 11Z" stroke="#539DF3" stroke-width="2" stroke-linejoin="round"/>
<circle cx="21.5" cy="30.5" r="1.5" fill="#539DF3"/>
<path d="M19.4156 1H11.6725C11.3441 1 11.0367 1.16121 10.85 1.43132L8.08452 5.43132C7.62595 6.0946 8.10071 7 8.90708 7H21.3909C22.1321 7 22.6157 6.22182 22.2875 5.55722L20.3122 1.55722C20.1437 1.216 19.7961 1 19.4156 1Z" fill="#083E7E" stroke="#539DF3" stroke-width="2" stroke-linejoin="round"/>
<line x1="4" y1="11.5" x2="15" y2="11.5" stroke="#539DF3" stroke-linejoin="round"/>
<line x1="4" y1="15.5" x2="15" y2="15.5" stroke="#539DF3" stroke-linejoin="round"/>
<line x1="4" y1="19.5" x2="15" y2="19.5" stroke="#539DF3" stroke-linejoin="round"/>
<line x1="4" y1="23.5" x2="15" y2="23.5" stroke="#539DF3" stroke-linejoin="round"/>
<line x1="4" y1="27.5" x2="15" y2="27.5" stroke="#539DF3" stroke-linejoin="round"/>
</svg>
